<?xml version="1.0" standalone="no"?>
<!DOCTYPE svg PUBLIC "-//W3C//DTD SVG 20010904//EN"
 "http://www.w3.org/TR/2001/REC-SVG-20010904/DTD/svg10.dtd">
<svg version="1.0" xmlns="http://www.w3.org/2000/svg"
 width="399.000000pt" height="399.000000pt" viewBox="0 0 399.000000 399.000000"
 preserveAspectRatio="xMidYMid meet">

<g transform="translate(0.000000,399.000000) scale(0.100000,-0.100000)"
fill="#000000" stroke="none">
<path d="M1884 3955 c0 -32 3 -35 28 -35 25 0 28 3 28 35 0 32 -3 35 -28 35
-25 0 -28 -3 -28 -35z"/>
<path d="M2030 3880 l0 -110 64 0 c95 0 96 -1 96 -81 l0 -68 68 -3 67 -3 8
-75 c4 -41 5 -111 1 -155 -3 -44 -6 -142 -7 -218 -2 -157 -6 -151 89 -145 l49
3 3 147 3 147 32 3 c32 3 32 3 35 66 3 57 1 62 -17 62 -25 0 -47 33 -56 82 -9
45 -16 51 -82 73 -52 17 -56 21 -68 83 -9 43 -30 62 -69 62 -47 0 -63 18 -70
79 -4 42 -12 61 -36 86 -16 17 -30 41 -30 53 0 19 -5 22 -40 22 l-40 0 0 -110z"/>
<path d="M1815 3909 c-54 -9 -71 -25 -81 -76 -10 -56 -2 -63 71 -63 l65 0 0
75 c0 41 -1 74 -2 74 -2 -1 -25 -5 -53 -10z"/>
<path d="M2678 3681 c-23 -9 -94 -73 -105 -96 -6 -11 -13 -40 -17 -66 l-7 -45
36 -1 35 -1 0 74 0 74 80 0 79 0 3 -147 3 -148 35 -5 35 -5 3 -77 3 -77 -38
-3 -38 -3 -3 -142 -3 -143 70 0 70 0 3 73 3 72 146 9 146 8 -3 37 c-2 20 -3
47 -3 61 l-1 25 -127 -3 c-95 -3 -133 0 -146 10 -14 10 -18 34 -23 113 -11
175 -46 278 -121 354 -47 47 -84 64 -115 52z"/>
<path d="M1662 3610 c-19 -4 -39 -13 -44 -18 -14 -14 -28 -105 -18 -115 4 -5
31 -7 61 -5 l54 3 3 73 c3 78 5 76 -56 62z"/>
<path d="M1035 3600 c-30 -12 -43 -30 -53 -78 -6 -25 -20 -51 -35 -62 -18 -14
-26 -32 -30 -70 -4 -37 -15 -61 -35 -84 -27 -31 -29 -41 -36 -147 -9 -148 -9
-147 -146 -154 -129 -7 -136 -9 -145 -43 -9 -37 -8 -203 2 -213 4 -4 34 -12
67 -17 l58 -9 -3 111 -4 111 82 3 82 3 3 -38 3 -38 65 0 65 0 -4 294 c-3 242
-1 295 10 302 8 5 42 9 76 9 l62 0 3 33 c3 31 5 32 48 32 44 0 45 -1 50 -35 4
-27 10 -35 25 -35 38 0 45 -14 45 -86 l0 -69 70 0 69 0 3 -77 3 -78 34 -5 35
-5 -2 -110 c-2 -138 6 -179 36 -183 35 -5 49 13 56 73 5 42 2 61 -10 80 -9 14
-15 41 -13 62 1 21 1 116 0 211 l-1 172 -137 -1 c-156 -1 -163 2 -163 77 0 62
-22 74 -130 73 -47 0 -94 -4 -105 -9z"/>
<path d="M3328 3299 c-85 -7 -98 -18 -98 -80 l0 -48 73 -3 72 -3 3 -205 c1
-113 0 -215 -3 -227 -4 -17 -14 -23 -43 -25 l-37 -3 -3 -67 -3 -67 -32 -3 -32
-3 0 -70 0 -70 72 -3 72 -3 3 148 3 148 59 6 c32 4 62 13 67 20 11 17 7 534
-4 545 -12 13 -98 19 -169 13z"/>
<path d="M2042 3140 c0 -14 2 -19 5 -12 2 6 2 18 0 25 -3 6 -5 1 -5 -13z"/>
<path d="M2110 3150 c0 -5 5 -10 10 -10 6 0 10 5 10 10 0 6 -4 10 -10 10 -5 0
-10 -4 -10 -10z"/>
<path d="M2080 3140 c-12 -8 -10 -10 8 -10 13 0 20 4 17 10 -7 12 -6 12 -25 0z"/>
<path d="M2103 3123 c-22 -8 -14 -29 12 -31 27 -2 28 -1 19 22 -6 17 -11 18
-31 9z"/>
<path d="M2489 3008 c-1 -2 -2 -99 -4 -215 l-2 -213 27 0 27 0 7 118 c3 64 7
160 8 212 l2 95 -32 3 c-18 2 -33 2 -33 0z"/>
<path d="M1244 2984 c3 -9 6 -19 6 -22 0 -9 20 21 20 31 0 4 -7 7 -16 7 -11 0
-14 -5 -10 -16z"/>
<path d="M1625 2990 c-3 -5 -1 -10 4 -10 6 0 11 5 11 10 0 6 -2 10 -4 10 -3 0
-8 -4 -11 -10z"/>
<path d="M1665 2950 c-8 -14 3 -30 21 -30 8 0 14 5 14 10 0 6 -5 10 -11 10 -5
0 -7 5 -4 10 3 6 2 10 -4 10 -5 0 -13 -4 -16 -10z"/>
<path d="M1250 2915 c1 -26 2 -28 11 -12 8 14 8 22 0 30 -8 8 -11 3 -11 -18z"/>
<path d="M2263 2933 c4 -3 1 -13 -5 -21 -10 -11 -8 -17 7 -28 32 -23 45 -17
45 21 0 31 -3 35 -27 35 -14 0 -23 -3 -20 -7z"/>
<path d="M994 2861 c-2 -2 -4 -32 -4 -67 l0 -62 59 -4 c86 -5 91 -2 90 40 -1
20 -4 51 -8 67 -6 29 -7 30 -69 30 -35 0 -66 -2 -68 -4z"/>
<path d="M2189 2829 c-17 -15 -19 -19 -6 -15 9 3 17 1 17 -4 0 -6 7 -10 15
-10 18 0 20 16 3 23 -10 4 -10 6 0 6 14 1 17 21 3 21 -5 0 -19 -9 -32 -21z"/>
<path d="M2091 2804 c0 -11 3 -14 6 -6 3 7 2 16 -1 19 -3 4 -6 -2 -5 -13z"/>
<path d="M2127 2786 c-23 -25 -40 -23 -49 4 -3 10 -11 2 -22 -24 -19 -45 -20
-72 -5 -82 6 -3 8 -16 5 -27 -3 -12 0 -27 6 -34 13 -17 58 -17 59 0 0 6 4 2 9
-10 20 -50 30 -21 30 87 0 61 -2 110 -5 110 -3 0 -16 -11 -28 -24z m-17 -131
c0 -8 -7 -15 -15 -15 -16 0 -20 12 -8 23 11 12 23 8 23 -8z"/>
<path d="M3160 2758 c0 -29 3 -36 18 -33 9 2 20 4 25 4 12 1 8 31 -4 31 -7 0
-18 8 -25 18 -12 15 -13 13 -14 -20z"/>
<path d="M2645 2740 c3 -5 25 -9 48 -9 40 1 40 2 12 9 -44 11 -67 11 -60 0z"/>
<path d="M688 2613 c-1 -54 -3 -120 -4 -146 l-2 -48 72 3 71 3 2 85 c2 115 -2
130 -38 130 -22 0 -29 5 -29 19 0 37 -12 51 -41 51 l-29 0 -2 -97z"/>
<path d="M3023 2553 c-7 -2 -13 -16 -13 -29 0 -17 -6 -24 -20 -25 -11 -1 -25
-2 -32 -3 -17 -2 -29 -53 -15 -64 10 -8 90 -10 120 -4 8 2 9 78 1 110 -6 22
-16 25 -41 15z"/>
<path d="M2350 2534 c0 -8 5 -12 10 -9 6 3 10 10 10 16 0 5 -4 9 -10 9 -5 0
-10 -7 -10 -16z"/>
<path d="M2395 2540 c3 -5 11 -10 16 -10 6 0 7 5 4 10 -3 6 -11 10 -16 10 -6
0 -7 -4 -4 -10z"/>
<path d="M2441 2524 c0 -11 3 -14 6 -6 3 7 2 16 -1 19 -3 4 -6 -2 -5 -13z"/>
<path d="M2351 2494 c0 -11 3 -14 6 -6 3 7 2 16 -1 19 -3 4 -6 -2 -5 -13z"/>
<path d="M2380 2488 c0 -9 5 -20 10 -23 13 -8 13 5 0 25 -8 13 -10 13 -10 -2z"/>
<path d="M2351 2453 c-1 -18 5 -23 24 -23 14 0 25 5 25 10 0 6 -9 10 -19 10
-11 0 -22 6 -24 13 -3 6 -6 2 -6 -10z"/>
<path d="M3085 2408 c-4 -9 -5 -42 -3 -74 l3 -59 65 0 65 0 3 55 c1 30 -2 61
-7 69 -14 21 -119 28 -126 9z"/>
<path d="M3379 2176 c-1 -133 -3 -288 -5 -346 -5 -145 -5 -146 59 -142 33 2
57 10 65 20 18 23 17 651 -1 675 -7 10 -34 21 -65 26 l-52 8 -1 -241z"/>
<path d="M570 2390 c-19 -19 -20 -33 -20 -355 0 -325 1 -335 20 -345 11 -6 40
-9 65 -8 l45 3 0 363 0 362 -45 0 c-32 0 -51 -6 -65 -20z"/>
<path d="M2783 2113 l-153 -4 0 -34 0 -34 -72 -3 -73 -3 -3 -32 c-4 -35 -4
-36 -73 -33 -26 1 -65 -3 -87 -9 -61 -17 -92 -1 -92 44 0 29 -3 36 -17 33 -16
-3 -18 -20 -21 -151 l-3 -147 68 2 68 3 3 -30 c2 -16 7 -32 12 -35 4 -3 102
-5 217 -5 l208 0 5 75 5 75 75 5 75 5 5 65 5 65 62 -2 c42 -1 63 2 66 11 3 7
3 42 0 79 l-6 67 -61 -2 c-33 -1 -130 -4 -213 -5z m-563 -108 c0 -8 -2 -15 -4
-15 -2 0 -6 7 -10 15 -3 8 -1 15 4 15 6 0 10 -7 10 -15z"/>
<path d="M990 2046 c0 -91 0 -92 70 -88 l60 4 1 -49 c1 -26 2 -55 3 -63 1 -12
18 -16 73 -18 86 -3 95 -13 90 -96 -2 -34 1 -56 7 -58 6 -2 106 -2 223 0 l212
3 3 32 3 32 68 -3 67 -4 0 121 c0 117 -1 121 -22 121 -12 0 -18 3 -14 8 4 4
13 7 19 7 19 0 14 29 -5 33 -12 2 -18 -3 -18 -15 0 -11 -6 -27 -13 -37 -11
-15 -24 -16 -127 -9 l-115 8 -3 32 -3 32 -67 3 -67 3 -3 33 -3 32 -220 0 -219
0 0 -64z"/>
<path d="M743 1673 l-53 -4 0 -252 c0 -139 3 -262 6 -275 8 -27 43 -47 102
-57 l42 -7 0 -278 c0 -319 -1 -314 85 -327 l49 -8 12 -59 c6 -32 18 -62 25
-67 22 -14 65 -10 79 6 7 8 18 15 25 15 14 0 21 -20 31 -98 8 -65 24 -82 74
-82 52 0 70 -20 70 -79 0 -58 12 -71 67 -71 52 0 65 20 61 88 l-3 47 -67 3
-68 3 -2 47 c-1 26 -3 108 -4 182 0 74 -2 154 -2 178 l-2 42 -64 0 -65 0 -3
-38 c-3 -34 -6 -37 -35 -40 -29 -3 -32 -7 -35 -40 -3 -34 -6 -37 -37 -40 -18
-2 -38 1 -43 6 -5 5 -9 135 -8 306 l1 296 -65 0 c-55 0 -67 3 -76 20 -11 21
-12 152 -1 230 l6 45 65 5 65 5 2 67 c2 78 -4 83 -86 74 -62 -7 -69 1 -73 89
-2 37 -7 69 -13 70 -5 0 -34 -1 -62 -2z"/>
<path d="M3225 1658 c-2 -7 -6 -40 -7 -73 l-3 -60 -65 -5 -65 -5 -3 -72 -3
-72 35 -7 c20 -3 43 -3 52 0 8 3 24 1 35 -5 18 -9 19 -20 17 -142 l-3 -132
-65 -5 -65 -5 -3 -149 -3 -148 48 7 c75 10 81 22 89 158 8 130 11 137 77 137
66 0 67 5 73 314 l6 276 -71 0 c-48 0 -73 -4 -76 -12z"/>
<path d="M2190 1431 c0 -50 6 -61 26 -41 6 6 21 6 42 1 19 -6 34 -6 37 0 4 5
-3 9 -14 9 -24 0 -71 20 -71 31 0 4 7 15 16 23 8 9 11 16 6 16 -6 0 -17 3 -26
6 -13 5 -16 -2 -16 -45z"/>
<path d="M980 1295 l0 -75 75 0 74 0 3 -147 3 -148 35 0 35 0 2 55 c0 30 1 63
2 73 1 13 10 17 36 17 l34 0 3 -147 3 -148 72 -3 72 -3 3 -72 3 -72 65 0 65 0
5 35 c5 33 7 35 48 38 l42 3 0 -36 c0 -35 1 -36 33 -33 l32 3 -2 125 c-1 69
-2 133 -3 143 0 14 -10 17 -63 17 l-64 0 -9 -72 -9 -73 -72 -3 -72 -3 -3 148
-3 148 -37 3 c-35 3 -38 5 -38 35 0 41 -12 59 -36 55 -14 -2 -20 5 -24 27 -5
30 -5 30 -82 33 l-77 3 -3 72 -3 72 -72 3 -73 3 0 -76z"/>
<path d="M2927 1363 c-4 -3 -7 -35 -7 -70 l0 -63 -62 0 c-69 -1 -98 -15 -98
-49 0 -14 -6 -21 -20 -21 -21 0 -31 -15 -35 -53 -1 -12 -3 -25 -4 -29 0 -4
-16 -8 -33 -10 l-33 -3 -8 -95 c-4 -52 -9 -115 -10 -140 -3 -40 -6 -45 -30
-48 -23 -3 -27 1 -28 22 -1 14 -3 31 -4 36 -1 6 -3 26 -4 45 -1 32 -4 35 -30
35 -29 0 -29 -1 -36 -72 -3 -40 -5 -107 -3 -148 l3 -75 70 0 70 0 3 73 3 72
59 0 c95 0 90 -8 90 156 l0 144 34 0 33 0 9 -72 c8 -65 12 -73 32 -76 12 -2
24 3 27 10 4 11 13 171 15 265 0 20 5 22 73 25 l72 3 3 73 3 72 -74 0 c-40 0
-77 -3 -80 -7z"/>
<path d="M1916 1353 c-58 -6 -90 -43 -37 -43 24 0 28 -3 24 -20 -3 -11 -9 -20
-14 -20 -5 0 -9 -7 -9 -16 0 -9 5 -12 11 -8 19 11 130 15 143 5 14 -12 94 -12
102 0 3 5 -3 8 -13 7 -42 -3 -93 3 -93 11 0 5 27 12 60 16 56 6 94 25 53 25
-15 0 -14 4 7 20 l25 20 -97 0 c-53 0 -102 1 -110 3 -7 2 -31 2 -52 0z m109
-33 c-6 -10 -122 -7 -132 4 -4 3 26 6 66 6 44 0 70 -4 66 -10z"/>
<path d="M1830 1250 c0 -5 5 -10 11 -10 5 0 7 5 4 10 -3 6 -8 10 -11 10 -2 0
-4 -4 -4 -10z"/>
<path d="M2720 1190 c0 -5 5 -10 11 -10 5 0 7 5 4 10 -3 6 -8 10 -11 10 -2 0
-4 -4 -4 -10z"/>
<path d="M1890 1055 c-10 -12 -11 -58 -4 -222 l9 -207 65 -1 65 0 0 220 0 220
-61 3 c-45 2 -64 -1 -74 -13z"/>
<path d="M2187 1064 c-10 -10 -9 -426 1 -441 5 -8 18 -10 32 -7 14 4 42 9 62
11 l37 5 3 72 3 71 33 3 32 3 0 69 0 69 -32 3 -33 3 -3 68 -3 67 -49 0 c-26 0
-55 2 -62 5 -8 3 -17 2 -21 -1z"/>
<path d="M2937 763 c-4 -3 -7 -33 -7 -65 l0 -58 45 0 c51 0 85 25 85 63 0 12
3 32 6 45 6 21 4 22 -58 22 -36 0 -68 -3 -71 -7z"/>
<path d="M2780 400 l0 -219 53 6 c28 3 58 10 65 16 9 7 12 62 12 213 l0 204
-65 0 -65 0 0 -220z"/>
<path d="M1437 314 c-4 -4 -7 -38 -7 -76 l0 -69 37 7 c21 4 87 8 146 8 l108 1
-3 65 -3 65 -136 3 c-74 1 -138 -1 -142 -4z"/>
<path d="M2337 313 c-4 -3 -7 -37 -7 -74 l0 -68 33 7 c17 4 83 7 145 7 l112 0
0 68 0 67 -138 0 c-76 0 -142 -3 -145 -7z"/>
<path d="M1739 163 c-1 -5 0 -26 1 -48 2 -74 7 -75 295 -75 286 0 275 -3 283
80 l5 50 -292 0 c-160 0 -291 -3 -292 -7z"/>
<path d="M2638 143 c-4 -83 9 -103 68 -103 52 0 64 16 64 84 l0 46 -65 0 c-64
0 -65 0 -67 -27z"/>
</g>
</svg>
