<?xml version="1.0" standalone="no"?>
<!DOCTYPE svg PUBLIC "-//W3C//DTD SVG 20010904//EN"
 "http://www.w3.org/TR/2001/REC-SVG-20010904/DTD/svg10.dtd">
<svg version="1.0" xmlns="http://www.w3.org/2000/svg"
 width="400.000000pt" height="400.000000pt" viewBox="0 0 400.000000 400.000000"
 preserveAspectRatio="xMidYMid meet">

<g transform="translate(0.000000,400.000000) scale(0.100000,-0.100000)"
fill="#000000" stroke="none">
<path d="M1454 3850 c-17 -7 -22 -19 -26 -65 -3 -34 -11 -60 -19 -66 -8 -5
-67 -9 -132 -9 -112 0 -119 -1 -142 -25 -14 -13 -25 -36 -25 -50 0 -32 -33
-65 -64 -65 -39 0 -67 -31 -77 -85 -10 -56 -16 -61 -76 -70 -49 -7 -73 -33
-73 -81 0 -40 -15 -52 -72 -60 -76 -11 -73 -1 -76 -226 -2 -123 -7 -207 -14
-215 -6 -7 -32 -13 -59 -13 -85 0 -80 33 -77 -517 3 -466 4 -485 22 -499 11
-8 36 -14 55 -14 68 0 65 9 71 -290 6 -308 1 -293 92 -303 28 -4 55 -12 60
-19 4 -7 7 -66 6 -130 -3 -136 0 -143 76 -157 54 -10 66 -22 66 -66 0 -49 23
-72 77 -78 50 -5 73 -25 73 -63 0 -45 22 -74 64 -85 23 -6 47 -13 54 -15 14
-4 16 -9 32 -70 5 -23 17 -44 24 -47 8 -3 68 -9 133 -13 65 -3 124 -11 131
-16 6 -6 12 -30 12 -53 0 -27 7 -51 19 -66 l18 -23 368 2 c215 1 384 6 406 12
44 12 59 33 59 83 0 19 6 39 13 45 6 5 66 12 133 13 143 5 154 10 154 78 0 57
12 71 61 71 52 0 79 26 86 80 8 60 18 70 67 70 61 0 79 18 86 81 l5 53 63 11
c35 7 68 18 73 26 5 8 9 52 9 99 1 47 4 103 8 125 l7 40 55 3 c30 2 60 8 67
14 10 8 13 75 13 288 0 210 3 280 13 288 6 5 33 13 59 17 26 4 52 13 58 20 13
15 20 978 8 991 -4 4 -36 10 -70 13 l-63 6 -5 212 c-3 116 -8 214 -12 218 -3
4 -34 9 -67 12 l-61 6 -1 41 c-2 83 -8 90 -79 100 -36 4 -68 13 -72 20 -4 6
-8 30 -8 53 0 50 -20 73 -63 73 -58 0 -81 20 -89 75 -4 29 -14 55 -24 62 -10
7 -48 13 -88 14 -39 0 -93 4 -121 7 l-50 7 -7 55 c-4 34 -13 59 -24 67 -14 10
-130 13 -558 12 -298 0 -551 -4 -562 -9z m-134 -650 l0 -210 -25 0 -25 0 0
210 0 210 25 0 25 0 0 -210z m1420 9 c0 -110 -4 -198 -9 -195 -4 3 -6 27 -3
54 2 27 -1 58 -7 69 -10 20 -17 79 -26 216 -4 55 -3 57 21 57 l24 0 0 -201z
m-1352 -304 c3 -45 1 -51 -18 -52 -25 -2 -25 5 -2 24 16 14 16 14 0 9 -15 -4
-18 1 -18 35 0 33 3 40 18 37 13 -2 18 -15 20 -53z m1258 -25 c8 0 14 -9 14
-20 0 -13 -7 -20 -20 -20 -18 0 -20 6 -18 58 1 42 2 47 5 20 3 -25 9 -38 19
-38z m-1023 -219 l67 -1 -2 -29 c-1 -17 5 -38 14 -48 12 -13 14 -23 8 -33 -8
-13 -10 -12 -10 3 0 9 -7 17 -15 17 -8 0 -15 -4 -15 -10 0 -5 -7 -7 -15 -4
-17 7 -19 -4 -6 -39 6 -14 7 -28 4 -31 -10 -10 -32 15 -27 29 4 9 -1 14 -13
14 -10 1 -57 4 -106 7 l-87 7 2 56 c1 31 3 58 4 61 1 3 31 4 66 3 34 -1 93 -2
131 -2z m923 -1 l44 0 0 -60 0 -59 -72 -3 c-71 -3 -73 -4 -76 -30 -3 -27 -25
-38 -37 -18 -3 6 -23 10 -44 10 -28 0 -42 -6 -53 -21 -13 -20 -13 -19 -10 20
4 44 18 62 28 37 3 -9 12 -16 20 -16 24 0 15 25 -16 43 -28 17 -29 17 -41 -4
-9 -17 -13 -19 -20 -8 -13 22 -11 29 11 29 21 0 40 27 40 59 0 18 7 20 78 23
42 2 83 2 90 1 8 -2 34 -3 58 -3z m-328 -130 c11 8 31 -64 21 -74 -14 -15 -11
-36 5 -36 8 0 17 8 21 18 6 15 8 14 16 -7 13 -32 -2 -41 -67 -39 -63 2 -74 -5
-74 -45 0 -18 -4 -37 -8 -42 -4 -6 -48 -10 -99 -10 -75 0 -96 -3 -110 -18 -16
-15 -16 -19 -3 -27 11 -7 7 -10 -17 -10 l-32 0 -3 73 -3 72 -62 5 c-59 5 -97
19 -57 21 34 2 39 4 44 14 3 6 -8 11 -25 11 -41 2 -43 4 -20 14 11 5 40 9 65
9 44 1 46 13 5 25 -11 3 2 3 29 0 29 -3 46 -2 42 4 -3 5 8 12 25 16 51 10 237
7 244 -4 3 -5 11 -10 17 -10 7 0 6 6 -2 15 -9 10 -9 15 -1 15 6 0 11 10 11 23
1 22 1 22 16 2 8 -11 18 -18 22 -15z m-410 13 c-10 -2 -26 -2 -35 0 -10 3 -2
5 17 5 19 0 27 -2 18 -5z m22 -23 c0 -5 -5 -10 -11 -10 -5 0 -7 5 -4 10 3 6 8
10 11 10 2 0 4 -4 4 -10z m-108 -35 c4 -17 1 -25 -8 -25 -8 0 -14 5 -14 11 0
7 -8 18 -17 25 -16 12 -16 13 8 14 21 0 28 -6 31 -25z m385 -241 c-3 -3 -12
-4 -19 -1 -8 3 -5 6 6 6 11 1 17 -2 13 -5z m11 -221 c14 -27 24 -145 12 -138
-6 3 -10 1 -10 -4 0 -6 5 -11 10 -11 6 0 10 -7 10 -15 0 -24 -89 -24 -103 1
-4 8 -16 14 -25 14 -14 0 -14 -2 -3 -9 10 -6 -1 -9 -32 -9 -26 0 -47 4 -47 10
0 6 -12 8 -29 5 l-30 -6 3 72 c2 40 4 79 5 87 1 8 11 -5 24 -30 27 -55 34 -60
72 -55 17 2 40 4 51 4 13 1 24 9 27 21 5 20 27 28 27 10 0 -5 4 -10 9 -10 5 0
7 18 4 40 -6 42 9 55 25 23z m993 -153 c-5 -64 -9 -75 -23 -72 -10 1 -29 -5
-43 -14 -14 -9 -25 -12 -25 -6 0 6 6 14 12 18 9 6 5 10 -12 14 -14 3 -26 11
-26 18 -1 7 -2 13 -4 15 -1 1 -2 17 -3 35 -2 31 -1 32 36 32 30 0 40 4 44 19
5 20 33 33 44 22 3 -3 3 -40 0 -81z m62 83 c-7 -2 -19 -2 -25 0 -7 3 -2 5 12
5 14 0 19 -2 13 -5z m-2193 -39 c35 -6 39 -10 42 -38 3 -27 7 -32 38 -36 31
-5 34 -8 35 -41 2 -32 -1 -35 -22 -31 -16 3 -23 0 -23 -12 0 -19 -21 -21 -38
-4 -9 9 -12 8 -12 -4 0 -9 6 -19 13 -22 8 -3 6 -9 -7 -20 -26 -21 -34 -11 -38
44 -3 43 -4 44 -37 45 -38 0 -37 -4 -33 102 2 33 5 41 17 37 9 -4 15 0 16 7 1
8 3 6 6 -3 3 -12 18 -20 43 -24z m910 -74 c0 -5 -4 -10 -10 -10 -5 0 -10 5
-10 10 0 6 5 10 10 10 6 0 10 -4 10 -10z m1044 -25 c-4 -8 -8 -15 -10 -15 -2
0 -4 7 -4 15 0 8 4 15 10 15 5 0 7 -7 4 -15z m56 -15 c0 -5 -4 -10 -10 -10 -5
0 -10 5 -10 10 0 6 5 10 10 10 6 0 10 -4 10 -10z m-842 -84 l3 -76 -146 0
-145 0 0 73 c0 41 2 76 6 79 3 3 67 5 142 3 l137 -2 3 -77z m-458 -28 l0 -83
-37 -2 c-21 -1 -43 -9 -49 -17 -6 -9 -16 -16 -23 -16 -6 0 -11 -4 -11 -10 0
-5 5 -10 10 -10 21 0 9 -31 -15 -40 -14 -5 -25 -13 -25 -17 0 -5 -12 -13 -26
-20 -22 -10 -25 -10 -20 3 3 9 6 44 6 79 l0 64 33 3 32 3 3 73 3 72 59 0 60 0
0 -82z m741 66 c3 -2 5 -23 2 -46 -8 -87 -2 -114 23 -104 8 3 14 1 14 -4 0 -6
-9 -10 -20 -10 -11 0 -20 5 -20 10 0 6 -7 10 -16 10 -8 0 -13 4 -9 9 3 5 0 13
-5 16 -8 5 -9 -5 -4 -30 5 -27 4 -36 -5 -31 -6 4 -11 3 -11 -1 0 -5 -10 -9
-22 -10 -11 -1 -25 -8 -29 -15 -6 -8 -9 4 -10 32 -5 117 -3 176 6 182 9 7 92
1 106 -8z m-1039 -50 c1 -31 1 -58 -1 -60 -2 -2 -35 -4 -73 -4 l-68 0 0 -35
c0 -34 -1 -35 -40 -35 -42 0 -48 8 -28 40 10 15 9 22 -5 38 -33 36 -22 42 79
41 87 -1 128 7 97 18 -7 3 -13 12 -13 20 0 13 3 13 15 3 9 -7 19 -9 23 -5 4 4
1 10 -5 12 -18 6 -16 23 1 23 10 0 15 -16 18 -56z m1298 37 c7 -14 6 -21 -3
-24 -28 -10 14 -31 58 -29 37 1 45 -2 45 -16 0 -10 3 -13 8 -6 11 16 38 24 49
13 5 -5 40 -12 76 -16 76 -7 81 -16 10 -17 -48 -1 -48 -1 -51 -38 l-3 -38 -60
0 c-56 0 -59 1 -54 23 10 40 -8 52 -82 52 l-68 0 -2 58 -1 57 34 0 c23 0 37
-6 44 -19z m250 -17 c0 -17 -22 -14 -28 4 -2 7 3 12 12 12 9 0 16 -7 16 -16z
m-1792 -15 c-2 -6 -8 -10 -13 -10 -5 0 -11 4 -13 10 -2 6 4 11 13 11 9 0 15
-5 13 -11z m169 5 c-3 -3 -12 -4 -19 -1 -8 3 -5 6 6 6 11 1 17 -2 13 -5z
m1538 -4 c3 -5 1 -10 -4 -10 -6 0 -11 5 -11 10 0 6 2 10 4 10 3 0 8 -4 11 -10z
m-1862 -58 c-18 -5 -27 3 -18 17 4 7 10 7 20 -2 11 -10 11 -13 -2 -15z m1517
-52 c0 -5 -4 -10 -10 -10 -5 0 -10 5 -10 10 0 6 5 10 10 10 6 0 10 -4 10 -10z
m0 -30 c0 -5 -2 -10 -4 -10 -3 0 -8 5 -11 10 -3 6 -1 10 4 10 6 0 11 -4 11
-10z m-35 -10 c3 -5 -1 -10 -9 -10 -9 0 -16 5 -16 10 0 6 4 10 9 10 6 0 13 -4
16 -10z m-95 -26 c0 -2 -7 -4 -15 -4 -8 0 -15 4 -15 10 0 5 7 7 15 4 8 -4 15
-8 15 -10z m125 -13 c10 -17 -12 -21 -25 -6 -10 12 -10 15 3 15 9 0 18 -4 22
-9z m-172 -36 c4 -8 2 -17 -3 -20 -6 -4 -10 3 -10 14 0 25 6 27 13 6z m-868
-35 c-3 -5 -13 -10 -21 -10 -8 0 -14 5 -14 10 0 6 9 10 21 10 11 0 17 -4 14
-10z m920 -8 c-11 -3 -26 -13 -33 -23 -18 -27 -32 -24 -32 7 0 17 4 24 13 21
6 -2 21 -1 32 3 11 4 25 5 30 1 6 -3 1 -7 -10 -9z m194 -34 c-1 -38 -2 -39 -8
-14 -6 28 -31 50 -31 27 0 -6 -13 -11 -30 -11 -16 0 -30 5 -30 10 0 6 10 10
23 10 12 0 29 5 37 10 30 19 40 11 39 -32z m-1059 2 c0 -5 -5 -10 -11 -10 -5
0 -7 5 -4 10 3 6 8 10 11 10 2 0 4 -4 4 -10z m236 -37 c-10 -10 -19 5 -10 18
6 11 8 11 12 0 2 -7 1 -15 -2 -18z m514 10 c1 -17 1 -17 11 0 12 21 41 23 33
2 -4 -8 -2 -15 4 -15 6 0 12 5 14 12 7 19 38 1 38 -22 0 -20 -4 -22 -52 -22
-21 -1 -28 -6 -29 -22 -1 -15 -3 -16 -6 -5 -3 11 -11 15 -24 12 -16 -5 -19 0
-19 29 0 19 3 38 7 41 12 12 23 7 23 -10z m137 -50 c-3 -10 -5 -4 -5 12 0 17
2 24 5 18 2 -7 2 -21 0 -30z m79 -19 c15 -4 24 -13 24 -26 0 -15 -5 -18 -19
-13 -27 8 -35 -10 -15 -40 9 -14 14 -26 10 -26 -3 -1 -11 -2 -17 -3 -6 0 -16
-9 -23 -18 -16 -22 -30 -23 -46 -3 -7 8 -21 15 -32 15 -17 0 -18 2 -8 15 8 10
16 12 20 6 3 -6 22 -8 43 -4 29 4 35 8 26 19 -6 7 -8 17 -5 22 3 5 -1 20 -9
35 -14 28 -9 41 13 32 8 -3 25 -8 38 -11z m-573 -243 c-1 -134 -4 -246 -6
-248 -2 -2 -12 -1 -21 3 -14 5 -16 28 -16 178 0 180 -5 222 -24 209 -6 -5 -38
-5 -71 -2 l-60 6 60 2 c33 2 51 5 40 8 -38 9 -41 24 -5 21 26 -2 35 1 38 15 2
10 -3 17 -12 17 -9 0 -16 7 -16 16 0 10 6 14 15 10 8 -3 15 -1 15 5 0 6 15 9
33 7 l32 -3 -2 -244z m197 214 c0 -8 -4 -15 -10 -15 -5 0 -10 7 -10 15 0 8 5
15 10 15 6 0 10 -7 10 -15z m-559 -24 c-13 -8 -4 -41 10 -41 5 0 9 -6 9 -14 0
-22 19 -30 35 -16 8 7 15 9 15 6 0 -4 9 -2 19 4 18 9 19 8 11 -20 -10 -35 6
-42 20 -7 6 15 9 17 9 5 1 -9 4 -24 8 -34 4 -11 3 -15 -5 -10 -6 4 -21 1 -33
-6 -16 -10 -23 -10 -26 -2 -2 7 -12 10 -22 7 -21 -5 -42 18 -22 25 9 3 8 9 -5
23 -12 13 -24 16 -45 12 -29 -5 -34 1 -30 36 3 18 55 62 60 49 2 -6 -2 -14 -8
-17z m958 -33 c-1 -31 -1 -31 -8 -8 -5 14 -6 28 -4 33 9 15 13 6 12 -25z m-79
-88 c0 -5 -5 -10 -11 -10 -5 0 -7 5 -4 10 3 6 8 10 11 10 2 0 4 -4 4 -10z
m-751 -49 c-3 -6 -10 -7 -18 -2 -7 5 -10 14 -6 21 9 14 29 -2 24 -19z m460
-101 c-1 -109 -3 -117 -25 -102 -15 9 -17 26 -15 130 1 75 3 82 21 82 19 0 20
-6 19 -110z m206 70 c3 -5 -1 -10 -9 -10 -9 0 -16 5 -16 10 0 6 4 10 9 10 6 0
13 -4 16 -10z"/>
<path d="M1535 2630 c-3 -5 3 -18 14 -29 20 -20 21 -20 31 -1 5 10 10 23 10
29 0 14 -47 14 -55 1z"/>
<path d="M1470 2620 c-1 -3 -3 -16 -6 -30 -3 -21 -2 -22 7 -7 6 10 8 23 5 30
-2 7 -5 10 -6 7z"/>
<path d="M2355 2630 c-3 -6 1 -7 9 -4 18 7 21 14 7 14 -6 0 -13 -4 -16 -10z"/>
<path d="M1900 2480 c0 -5 10 -10 23 -10 18 0 19 2 7 10 -19 13 -30 13 -30 0z"/>
<path d="M1956 2482 c-3 -5 0 -12 6 -15 8 -3 3 -9 -12 -15 -25 -11 -25 -11 8
-11 35 -1 39 6 19 34 -9 11 -16 14 -21 7z"/>
<path d="M2180 2439 c7 -11 14 -19 16 -16 7 7 -7 37 -17 37 -6 0 -5 -9 1 -21z"/>
<path d="M1957 2343 c-15 -15 -5 -23 29 -23 31 0 35 2 24 15 -13 16 -42 20
-53 8z"/>
<path d="M1945 1880 c-3 -5 1 -10 10 -10 9 0 13 5 10 10 -3 6 -8 10 -10 10 -2
0 -7 -4 -10 -10z"/>
<path d="M1531 1524 c0 -11 3 -14 6 -6 3 7 2 16 -1 19 -3 4 -6 -2 -5 -13z"/>
<path d="M2367 1684 c-9 -10 2 -24 19 -24 8 0 14 7 14 15 0 15 -21 21 -33 9z"/>
<path d="M1195 1670 c-4 -6 5 -10 20 -10 15 0 24 4 20 10 -3 6 -12 10 -20 10
-8 0 -17 -4 -20 -10z"/>
</g>
</svg>
